<mxfile host="app.diagrams.net" agent="Mozilla/5.0 (Windows NT 10.0; Win64; x64; rv:132.0) Gecko/20100101 Firefox/132.0" version="24.9.1">
  <diagram name="PÃ¡gina-1" id="kOtEP9U-xH8mwwRORWWk">
    <mxGraphModel dx="1674" dy="746" grid="1" gridSize="10" guides="1" tooltips="1" connect="1" arrows="1" fold="1" page="1" pageScale="1" pageWidth="827" pageHeight="1169" math="0" shadow="0">
      <root>
        <mxCell id="0" />
        <mxCell id="1" parent="0" />
        <mxCell id="ZcGN5rA55hB6uzt1M-LF-1" value="Manejo Turnos" style="strokeWidth=1;shadow=0;dashed=0;align=center;html=1;shape=mxgraph.mockup.containers.window;align=left;verticalAlign=top;spacingLeft=8;strokeColor2=#008cff;strokeColor3=#c4c4c4;fontColor=#666666;mainText=;fontSize=17;labelBackgroundColor=none;whiteSpace=wrap;fillColor=#1BA1E2;" vertex="1" parent="1">
          <mxGeometry width="840" height="510" as="geometry" />
        </mxCell>
        <mxCell id="ZcGN5rA55hB6uzt1M-LF-2" value="" style="strokeWidth=1;shadow=0;dashed=0;align=center;html=1;shape=mxgraph.mockup.containers.marginRect2;rectMarginTop=32;strokeColor=#666666;gradientColor=none;whiteSpace=wrap;" vertex="1" parent="1">
          <mxGeometry x="80" y="100" width="670" height="310" as="geometry" />
        </mxCell>
        <mxCell id="ZcGN5rA55hB6uzt1M-LF-3" value="Limpieza" style="strokeColor=inherit;fillColor=inherit;gradientColor=inherit;strokeWidth=1;shadow=0;dashed=0;align=center;html=1;shape=mxgraph.mockup.containers.rrect;rSize=0;fontSize=17;fontColor=#666666;gradientColor=none;" vertex="1" parent="ZcGN5rA55hB6uzt1M-LF-2">
          <mxGeometry width="150" height="25" relative="1" as="geometry">
            <mxPoint as="offset" />
          </mxGeometry>
        </mxCell>
        <mxCell id="ZcGN5rA55hB6uzt1M-LF-4" value="Seguridad" style="strokeWidth=1;shadow=0;dashed=0;align=center;html=1;shape=mxgraph.mockup.containers.rrect;rSize=0;fontSize=17;fontColor=#ffffff;strokeColor=#008cff;fillColor=#008cff;" vertex="1" parent="ZcGN5rA55hB6uzt1M-LF-2">
          <mxGeometry width="140" height="25" relative="1" as="geometry">
            <mxPoint x="155" as="offset" />
          </mxGeometry>
        </mxCell>
        <mxCell id="ZcGN5rA55hB6uzt1M-LF-6" value="" style="strokeWidth=1;shadow=0;dashed=0;align=center;html=1;shape=mxgraph.mockup.containers.topButton;rSize=5;strokeColor=#008cff;fillColor=#008cff;gradientColor=none;resizeWidth=1;movable=0;deletable=1;" vertex="1" parent="ZcGN5rA55hB6uzt1M-LF-2">
          <mxGeometry width="670" height="7" relative="1" as="geometry">
            <mxPoint y="25" as="offset" />
          </mxGeometry>
        </mxCell>
        <mxCell id="ZcGN5rA55hB6uzt1M-LF-8" value="" style="shape=table;startSize=0;container=1;collapsible=0;childLayout=tableLayout;strokeColor=default;fontSize=16;" vertex="1" parent="1">
          <mxGeometry x="79" y="133" width="671" height="130" as="geometry" />
        </mxCell>
        <mxCell id="ZcGN5rA55hB6uzt1M-LF-9" value="" style="shape=tableRow;horizontal=0;startSize=0;swimlaneHead=0;swimlaneBody=0;strokeColor=inherit;top=0;left=0;bottom=0;right=0;collapsible=0;dropTarget=0;fillColor=none;points=[[0,0.5],[1,0.5]];portConstraint=eastwest;fontSize=16;" vertex="1" parent="ZcGN5rA55hB6uzt1M-LF-8">
          <mxGeometry width="671" height="44" as="geometry" />
        </mxCell>
        <mxCell id="ZcGN5rA55hB6uzt1M-LF-10" value="Nombre Completo" style="shape=partialRectangle;html=1;whiteSpace=wrap;connectable=0;strokeColor=inherit;overflow=hidden;fillColor=none;top=0;left=0;bottom=0;right=0;pointerEvents=1;fontSize=16;" vertex="1" parent="ZcGN5rA55hB6uzt1M-LF-9">
          <mxGeometry width="165" height="44" as="geometry">
            <mxRectangle width="165" height="44" as="alternateBounds" />
          </mxGeometry>
        </mxCell>
        <mxCell id="ZcGN5rA55hB6uzt1M-LF-11" value="Rut" style="shape=partialRectangle;html=1;whiteSpace=wrap;connectable=0;strokeColor=inherit;overflow=hidden;fillColor=none;top=0;left=0;bottom=0;right=0;pointerEvents=1;fontSize=16;" vertex="1" parent="ZcGN5rA55hB6uzt1M-LF-9">
          <mxGeometry x="165" width="163" height="44" as="geometry">
            <mxRectangle width="163" height="44" as="alternateBounds" />
          </mxGeometry>
        </mxCell>
        <mxCell id="ZcGN5rA55hB6uzt1M-LF-12" value="Empresa Perteneciente" style="shape=partialRectangle;html=1;whiteSpace=wrap;connectable=0;strokeColor=inherit;overflow=hidden;fillColor=none;top=0;left=0;bottom=0;right=0;pointerEvents=1;fontSize=16;" vertex="1" parent="ZcGN5rA55hB6uzt1M-LF-9">
          <mxGeometry x="328" width="165" height="44" as="geometry">
            <mxRectangle width="165" height="44" as="alternateBounds" />
          </mxGeometry>
        </mxCell>
        <mxCell id="ZcGN5rA55hB6uzt1M-LF-13" value="Lugar Asignado" style="shape=partialRectangle;html=1;whiteSpace=wrap;connectable=0;strokeColor=inherit;overflow=hidden;fillColor=none;top=0;left=0;bottom=0;right=0;pointerEvents=1;fontSize=16;" vertex="1" parent="ZcGN5rA55hB6uzt1M-LF-9">
          <mxGeometry x="493" width="178" height="44" as="geometry">
            <mxRectangle width="178" height="44" as="alternateBounds" />
          </mxGeometry>
        </mxCell>
        <mxCell id="ZcGN5rA55hB6uzt1M-LF-15" value="" style="shape=tableRow;horizontal=0;startSize=0;swimlaneHead=0;swimlaneBody=0;strokeColor=inherit;top=0;left=0;bottom=0;right=0;collapsible=0;dropTarget=0;fillColor=none;points=[[0,0.5],[1,0.5]];portConstraint=eastwest;fontSize=16;" vertex="1" parent="ZcGN5rA55hB6uzt1M-LF-8">
          <mxGeometry y="44" width="671" height="42" as="geometry" />
        </mxCell>
        <mxCell id="ZcGN5rA55hB6uzt1M-LF-16" value="Juan Perez Perez" style="shape=partialRectangle;html=1;whiteSpace=wrap;connectable=0;strokeColor=inherit;overflow=hidden;fillColor=none;top=0;left=0;bottom=0;right=0;pointerEvents=1;fontSize=16;" vertex="1" parent="ZcGN5rA55hB6uzt1M-LF-15">
          <mxGeometry width="165" height="42" as="geometry">
            <mxRectangle width="165" height="42" as="alternateBounds" />
          </mxGeometry>
        </mxCell>
        <mxCell id="ZcGN5rA55hB6uzt1M-LF-17" value="12345679-0" style="shape=partialRectangle;html=1;whiteSpace=wrap;connectable=0;strokeColor=inherit;overflow=hidden;fillColor=none;top=0;left=0;bottom=0;right=0;pointerEvents=1;fontSize=16;" vertex="1" parent="ZcGN5rA55hB6uzt1M-LF-15">
          <mxGeometry x="165" width="163" height="42" as="geometry">
            <mxRectangle width="163" height="42" as="alternateBounds" />
          </mxGeometry>
        </mxCell>
        <mxCell id="ZcGN5rA55hB6uzt1M-LF-18" value="Seguridad S.A" style="shape=partialRectangle;html=1;whiteSpace=wrap;connectable=0;strokeColor=inherit;overflow=hidden;fillColor=none;top=0;left=0;bottom=0;right=0;pointerEvents=1;fontSize=16;" vertex="1" parent="ZcGN5rA55hB6uzt1M-LF-15">
          <mxGeometry x="328" width="165" height="42" as="geometry">
            <mxRectangle width="165" height="42" as="alternateBounds" />
          </mxGeometry>
        </mxCell>
        <mxCell id="ZcGN5rA55hB6uzt1M-LF-19" value="Sala de Espera" style="shape=partialRectangle;html=1;whiteSpace=wrap;connectable=0;strokeColor=inherit;overflow=hidden;fillColor=none;top=0;left=0;bottom=0;right=0;pointerEvents=1;fontSize=16;" vertex="1" parent="ZcGN5rA55hB6uzt1M-LF-15">
          <mxGeometry x="493" width="178" height="42" as="geometry">
            <mxRectangle width="178" height="42" as="alternateBounds" />
          </mxGeometry>
        </mxCell>
        <mxCell id="ZcGN5rA55hB6uzt1M-LF-21" value="" style="shape=tableRow;horizontal=0;startSize=0;swimlaneHead=0;swimlaneBody=0;strokeColor=inherit;top=0;left=0;bottom=0;right=0;collapsible=0;dropTarget=0;fillColor=none;points=[[0,0.5],[1,0.5]];portConstraint=eastwest;fontSize=16;" vertex="1" parent="ZcGN5rA55hB6uzt1M-LF-8">
          <mxGeometry y="86" width="671" height="44" as="geometry" />
        </mxCell>
        <mxCell id="ZcGN5rA55hB6uzt1M-LF-22" value="Gabriel Boric Font" style="shape=partialRectangle;html=1;whiteSpace=wrap;connectable=0;strokeColor=inherit;overflow=hidden;fillColor=none;top=0;left=0;bottom=0;right=0;pointerEvents=1;fontSize=16;" vertex="1" parent="ZcGN5rA55hB6uzt1M-LF-21">
          <mxGeometry width="165" height="44" as="geometry">
            <mxRectangle width="165" height="44" as="alternateBounds" />
          </mxGeometry>
        </mxCell>
        <mxCell id="ZcGN5rA55hB6uzt1M-LF-23" value="12345667-0" style="shape=partialRectangle;html=1;whiteSpace=wrap;connectable=0;strokeColor=inherit;overflow=hidden;fillColor=none;top=0;left=0;bottom=0;right=0;pointerEvents=1;fontSize=16;" vertex="1" parent="ZcGN5rA55hB6uzt1M-LF-21">
          <mxGeometry x="165" width="163" height="44" as="geometry">
            <mxRectangle width="163" height="44" as="alternateBounds" />
          </mxGeometry>
        </mxCell>
        <mxCell id="ZcGN5rA55hB6uzt1M-LF-24" value="Seguridad S.A." style="shape=partialRectangle;html=1;whiteSpace=wrap;connectable=0;strokeColor=inherit;overflow=hidden;fillColor=none;top=0;left=0;bottom=0;right=0;pointerEvents=1;fontSize=16;" vertex="1" parent="ZcGN5rA55hB6uzt1M-LF-21">
          <mxGeometry x="328" width="165" height="44" as="geometry">
            <mxRectangle width="165" height="44" as="alternateBounds" />
          </mxGeometry>
        </mxCell>
        <mxCell id="ZcGN5rA55hB6uzt1M-LF-25" value="Sala de Espera" style="shape=partialRectangle;html=1;whiteSpace=wrap;connectable=0;strokeColor=inherit;overflow=hidden;fillColor=none;top=0;left=0;bottom=0;right=0;pointerEvents=1;fontSize=16;" vertex="1" parent="ZcGN5rA55hB6uzt1M-LF-21">
          <mxGeometry x="493" width="178" height="44" as="geometry">
            <mxRectangle width="178" height="44" as="alternateBounds" />
          </mxGeometry>
        </mxCell>
      </root>
    </mxGraphModel>
  </diagram>
</mxfile>
